<?xml version="1.0" encoding="iso-8859-1"?>
<!-- Generator: Adobe Illustrator 19.0.0, SVG Export Plug-In . SVG Version: 6.00 Build 0)  -->
<svg version="1.1" id="Layer_1" xmlns="http://www.w3.org/2000/svg" xmlns:xlink="http://www.w3.org/1999/xlink" x="0px" y="0px"
	 viewBox="0 0 512 512" style="enable-background:new 0 0 512 512;" xml:space="preserve">
<g>
	<g>
		<path d="M482.893,170.17H379.646v-49.861c0-5.632-4.566-10.199-10.199-10.199h-38.739V60.249c0-5.632-4.566-10.199-10.199-10.199
			h-54.31v-39.85C266.199,4.567,261.633,0,256,0c-5.633,0-10.199,4.567-10.199,10.199v39.85h-54.31
			c-5.633,0-10.199,4.567-10.199,10.199v49.861h-38.739c-5.633,0-10.199,4.567-10.199,10.199v49.861H29.107
			c-5.633,0-10.199,4.567-10.199,10.199v321.432c0,5.632,4.566,10.199,10.199,10.199h453.785c5.633,0,10.199-4.567,10.199-10.199
			V180.369C493.092,174.737,488.526,170.17,482.893,170.17z M132.354,491.602H39.307v-60.793h93.047V491.602z M132.354,410.41
			H39.307v-39.662h93.047V410.41z M132.354,350.35H39.307v-39.662h93.047V350.35z M132.354,290.29H39.307v-39.662h93.047V290.29z
			 M132.354,230.231H39.307v-39.663h93.047V230.231z M201.69,70.448h108.62v39.662H201.69V70.448z M298.639,491.602h-85.278v-17.417
			h85.278V491.602z M359.248,491.602h-40.21v-27.616c0-5.632-4.566-10.199-10.199-10.199H203.162
			c-5.633,0-10.199,4.567-10.199,10.199v27.616h-40.21v-60.793h206.495V491.602z M359.248,410.41H152.752v-39.662h206.495V410.41z
			 M359.248,350.35H152.752v-39.662h206.495V350.35z M359.248,290.29H152.752v-39.662h206.495V290.29z M359.248,230.231H152.752
			v-39.663h206.495V230.231z M359.248,170.17H152.752v-39.662h38.739h129.018h38.739V170.17z M472.693,491.602h-93.047v-60.793
			h93.047V491.602z M472.693,410.41h-93.047v-39.662h93.047V410.41z M472.693,350.35h-93.047v-39.662h93.047V350.35z
			 M472.693,290.29h-93.047v-39.662h93.047V290.29z M472.693,230.23h-93.047v-39.663h93.047V230.23z"/>
	</g>
</g>
<g>
	<g>
		<path d="M209.287,383.716h-10.009c-5.633,0-10.199,4.567-10.199,10.199s4.566,10.199,10.199,10.199h10.009
			c5.633,0,10.199-4.567,10.199-10.199S214.92,383.716,209.287,383.716z"/>
	</g>
</g>
<g>
	<g>
		<path d="M339.416,383.716h-97.875c-5.633,0-10.199,4.567-10.199,10.199s4.566,10.199,10.199,10.199h97.875
			c5.633,0,10.199-4.567,10.199-10.199S345.049,383.716,339.416,383.716z"/>
	</g>
</g>
<g>
</g>
<g>
</g>
<g>
</g>
<g>
</g>
<g>
</g>
<g>
</g>
<g>
</g>
<g>
</g>
<g>
</g>
<g>
</g>
<g>
</g>
<g>
</g>
<g>
</g>
<g>
</g>
<g>
</g>
</svg>
