<?xml version="1.0" encoding="iso-8859-1"?>
<!-- Generator: Adobe Illustrator 19.0.0, SVG Export Plug-In . SVG Version: 6.00 Build 0)  -->
<svg version="1.1" id="Layer_1" xmlns="http://www.w3.org/2000/svg" xmlns:xlink="http://www.w3.org/1999/xlink" x="0px" y="0px"
	 viewBox="0 0 512 512" style="enable-background:new 0 0 512 512;" xml:space="preserve">
<g>
	<g>
		<path d="M507.049,133.152L259.066,30.538c-1.963-0.812-4.168-0.812-6.13,0L4.952,133.152C1.955,134.392,0,137.316,0,140.56v25.653
			c0,4.427,3.589,8.017,8.017,8.017h26.188v26.188c0,4.427,3.589,8.017,8.017,8.017h17.637v189.194H42.221
			c-4.427,0-8.017,3.589-8.017,8.017v26.188H16.568c-4.427,0-8.017,3.589-8.017,8.017v34.205c0,4.427,3.589,8.017,8.017,8.017
			h478.864c4.427,0,8.017-3.589,8.017-8.017V439.85c0-4.427-3.589-8.017-8.017-8.017h-17.637v-26.188
			c0-4.427-3.589-8.017-8.017-8.017h-17.637V208.434h17.637c4.427,0,8.017-3.589,8.017-8.017V174.23h26.188
			c4.427,0,8.017-3.589,8.017-8.017V140.56C512,137.316,510.045,134.392,507.049,133.152z M487.415,447.866v18.171H24.585v-18.171
			H487.415z M461.762,413.662v18.171H50.238v-18.171H461.762z M75.891,397.628V208.434h18.171v189.194H75.891z M110.096,397.628
			V208.434h18.171v189.194H110.096z M144.301,397.628V208.434h18.171v189.194H144.301z M178.505,397.628V208.434h18.171v189.194
			H178.505z M212.71,397.628V208.434h18.171v189.194H212.71z M246.914,397.628V208.434h18.171v189.194H246.914z M281.119,397.628
			V208.434h18.171v189.194H281.119z M315.324,397.628V208.434h18.171v189.194H315.324z M349.528,397.628V208.434h18.171v189.194
			H349.528z M383.733,397.628V208.434h18.171v189.194H383.733z M417.937,397.628V208.434h18.171v189.194H417.937z M461.762,192.401
			H50.238V174.23h411.524V192.401z M495.967,158.196H16.033v-12.278L256,46.622l239.967,99.296V158.196z"/>
	</g>
</g>
<g>
</g>
<g>
</g>
<g>
</g>
<g>
</g>
<g>
</g>
<g>
</g>
<g>
</g>
<g>
</g>
<g>
</g>
<g>
</g>
<g>
</g>
<g>
</g>
<g>
</g>
<g>
</g>
<g>
</g>
</svg>
